<svg xmlns="http://www.w3.org/2000/svg" width="180.381" height="26.224" viewBox="0 0 180.381 26.224"><defs><style>.a{fill:#fff;}.b{fill:#e2b874;}</style></defs><g transform="translate(-113.854 -2013.54)"><g transform="translate(113.854 2013.54)"><g transform="translate(0 0)"><path class="a" d="M142.178,2018.772l11.6.049a4.623,4.623,0,0,1,3.913,4.938c-.346,2.7-3.74,3.6-3.74,3.6l2.08,3.6s6.234-1.662,5.956-7.9a8.639,8.639,0,0,0-8.034-8.49c-2.771,0-11.846-.016-11.846-.016Z" transform="translate(-139.674 -2014.472)"/><path class="b" d="M136.4,2022.7a8.59,8.59,0,0,0-8.584-8.58H114.105l2.512,4.311,11.2.011A9.977,9.977,0,0,1,136.4,2022.7Z" transform="translate(-114.105 -2014.073)"/><path class="a" d="M437.523,2017.786a12.863,12.863,0,1,1-9.161-3.833A12.424,12.424,0,0,1,437.523,2017.786Zm-15.3,3.055a8.663,8.663,0,1,0,6.139-2.532,8.308,8.308,0,0,0-6.139,2.531Z" transform="translate(-389.3 -2013.916)"/><rect class="b" width="4.38" height="4.38" transform="translate(55.885)"/><path class="a" d="M762.252,2104.7l-.014-19.781-4.347,4.405.007,15.372Z" transform="translate(-701.929 -2078.714)"/><path class="a" d="M834.482,2013.655l-4.431,4.363h8.638l.024,21.684,4.34-.005-.032-21.678h1.537l7.119.017v-.017h0v-4.363Z" transform="translate(-767.815 -2013.645)"/><path class="a" d="M199.684,2176.152s-7.406-12.518-7.61-12.905h-6.548v4.29h4.046l5.047,8.615Z" transform="translate(-179.318 -2150.233)"/></g></g><g transform="translate(205.198 2013.661)"><path class="b" d="M1164.91,2041.035v-26.1h9.389c4.486,0,7.525,2.587,7.525,6.44a5.9,5.9,0,0,1-4.775,5.879v.126c3.618.434,6.132,2.876,6.132,6.494,0,4.45-3.31,7.164-8.828,7.164Zm2.46-14.508h5.68c3.962,0,6.277-1.809,6.277-4.884,0-2.84-2.08-4.522-5.554-4.522h-6.4Zm6.639,12.319c4.269,0,6.639-1.864,6.639-5.1,0-3.256-2.46-5.083-6.964-5.083h-6.313v10.185Z" transform="translate(-1164.91 -2014.932)"/><path class="b" d="M1408.84,2033.04h-10.962l-2.894,8h-2.623l9.768-26.1h2.46l9.75,26.1h-2.6Zm-10.221-2.135h9.479l-4.685-12.916h-.108Z" transform="translate(-1372.588 -2014.932)"/><path class="b" d="M1678.284,2041.035v-26.1h2.442l15.3,21.8h.127v-21.8h2.442v26.1h-2.388l-15.358-21.816h-.127v21.816Z" transform="translate(-1633.658 -2014.932)"/><path class="b" d="M1968.163,2041.035v-26.1h2.46v13.531h.145l12.41-13.531h3.13l-10.727,11.541,11.794,14.562h-3.166l-10.365-12.807-3.22,3.491v9.316Z" transform="translate(-1898.338 -2014.932)"/></g></g></svg>